<?xml version="1.0" standalone="no"?><!DOCTYPE svg PUBLIC "-//W3C//DTD SVG 1.1//EN" "http://www.w3.org/Graphics/SVG/1.1/DTD/svg11.dtd"><svg t="1589617490790" class="icon" viewBox="0 0 1024 1024" version="1.1" xmlns="http://www.w3.org/2000/svg" p-id="4056" xmlns:xlink="http://www.w3.org/1999/xlink" width="200" height="200"><defs><style type="text/css"></style></defs><path d="M1000.277333 89.770667a42.666667 42.666667 0 0 1 19.285334 57.173333l-230.272 464.554667A128 128 0 0 1 674.56 682.666667H173.653333a85.333333 85.333333 0 0 0 0 170.666666h544.725334a42.666667 42.666667 0 0 0 37.845333-22.954666l187.221333-359.424a42.666667 42.666667 0 0 1 75.690667 39.424l-187.221333 359.424A128 128 0 0 1 718.464 938.666667H173.696a170.666667 170.666667 0 1 1 0-341.333334H674.56a42.666667 42.666667 0 0 0 38.229333-23.722666l230.272-464.554667a42.666667 42.666667 0 0 1 57.173334-19.285333z" fill="#75C82B" p-id="4057"></path><path d="M518.101333 170.666667a213.333333 213.333333 0 0 0-189.269333 114.901333l-205.653333 395.434667a42.666667 42.666667 0 0 1-75.690667-39.338667l205.653333-395.434667A298.666667 298.666667 0 0 1 518.058667 85.333333H970.24a42.666667 42.666667 0 1 1 0 85.333334H518.101333z" fill="#75C82B" p-id="4058"></path><path d="M448 256a42.666667 42.666667 0 0 1 42.666667-42.666667H725.333333a42.666667 42.666667 0 0 1 0 85.333334h-234.666666a42.666667 42.666667 0 0 1-42.666667-42.666667zM384 384a42.666667 42.666667 0 0 1 42.666667-42.666667h234.666666a42.666667 42.666667 0 0 1 0 85.333334H426.666667a42.666667 42.666667 0 0 1-42.666667-42.666667z" fill="#75C82B" p-id="4059"></path></svg>